<svg width="21" height="21" viewBox="0 0 21 21" fill="none" xmlns="http://www.w3.org/2000/svg">
<path d="M10.0625 0C12.7312 0 15.2907 1.06015 17.1778 2.94724C19.0648 4.83432 20.125 7.39376 20.125 10.0625C20.125 12.7312 19.0648 15.2907 17.1778 17.1778C15.2907 19.0648 12.7312 20.125 10.0625 20.125C7.39376 20.125 4.83432 19.0648 2.94724 17.1778C1.06015 15.2907 0 12.7312 0 10.0625C0 7.39376 1.06015 4.83432 2.94724 2.94724C4.83432 1.06015 7.39376 0 10.0625 0ZM8.809 12.0477L6.57369 9.81094C6.49355 9.7308 6.39842 9.66724 6.29372 9.62387C6.18902 9.5805 6.0768 9.55818 5.96347 9.55818C5.85014 9.55818 5.73792 9.5805 5.63322 9.62387C5.52852 9.66724 5.43339 9.7308 5.35325 9.81094C5.19141 9.97278 5.10049 10.1923 5.10049 10.4212C5.10049 10.65 5.19141 10.8695 5.35325 11.0314L8.1995 13.8776C8.27941 13.9582 8.37447 14.0221 8.4792 14.0657C8.58393 14.1093 8.69627 14.1318 8.80972 14.1318C8.92317 14.1318 9.0355 14.1093 9.14023 14.0657C9.24497 14.0221 9.34003 13.9582 9.41994 13.8776L15.3137 7.98244C15.3949 7.90263 15.4595 7.80754 15.5038 7.70265C15.548 7.59775 15.5711 7.48513 15.5716 7.37128C15.5722 7.25743 15.5501 7.14459 15.5069 7.03929C15.4636 6.93399 15.3998 6.8383 15.3194 6.75775C15.2389 6.67719 15.1433 6.61337 15.0381 6.56995C14.9328 6.52653 14.82 6.50438 14.7061 6.50477C14.5923 6.50517 14.4796 6.5281 14.3747 6.57225C14.2698 6.6164 14.1746 6.68089 14.0947 6.762L8.809 12.0477Z" fill="#FF5F58"/>
</svg>
